<svg xmlns="http://www.w3.org/2000/svg" width="487.835" height="552.143" viewBox="0 0 487.835 552.143"><defs><style>.a{fill:#e22879;opacity:0.05;}</style></defs><path class="a" d="M298.164,30.736c34.957,26.769,55.742,71.174,77.158,116.209C396.737,191.665,419.1,236.7,404.61,270.4s-65.19,56.057-99.2,90.385S254.389,441.4,221.321,466.913C188.254,492.108,138.81,496.2,104.8,474.157c-34.327-21.73-52.908-69.6-71.174-108.336C15.358,327.4-2.278,298.111.241,270.082c2.834-28.029,25.824-54.483,36.847-89.755s10.078-79.362,29.6-113.06C85.9,33.256,125.583,9.636,169.988,2.393S263.207,4.282,298.164,30.736Z" transform="translate(84.828) rotate(10)"/></svg>