<svg xmlns="http://www.w3.org/2000/svg" width="504.439" height="570.936" viewBox="0 0 504.439 570.936"><defs><style>.a{fill:#922bd6;opacity:0.06;}</style></defs><path class="a" d="M255.836-45.077c36.147,27.68,57.64,73.6,79.784,120.164,22.144,46.242,45.265,92.81,30.285,127.654S298.5,260.706,263.326,296.2s-52.755,83.366-86.948,109.743c-34.193,26.052-85.32,30.285-120.49,7.49-35.5-22.47-54.709-71.968-73.6-112.023-18.888-39.729-37.124-70.014-34.519-99,2.931-28.983,26.7-56.337,38.1-92.81S-3.706,27.542,16.485-7.3C36.349-42.472,77.381-66.9,123.3-74.386S219.689-72.432,255.836-45.077Z" transform="translate(126.048 84.805) rotate(10)"/></svg>