<svg xmlns="http://www.w3.org/2000/svg" width="695.725" height="663.56" viewBox="0 0 695.725 663.56"><defs><style>.a{fill:#fe6565;opacity:0.11;}</style></defs><path class="a" d="M278.017-42.791C316.764-13.119,339.8,36.1,363.54,86.018,387.277,135.587,412.062,185.5,396,222.856s-72.259,62.136-109.959,100.185S229.5,412.4,192.842,440.68c-36.653,27.926-91.458,32.464-129.158,8.029C25.635,424.622,5.039,371.562-15.207,328.626c-20.246-42.587-39.795-75.051-37-106.119,3.142-31.068,28.624-60.39,40.842-99.487S-.2,35.053,21.446-2.3c21.294-37.7,65.277-63.881,114.5-71.91S239.269-72.113,278.017-42.791Z" transform="translate(267.122 579.684) rotate(-120)"/></svg>