<svg xmlns="http://www.w3.org/2000/svg" width="562.275" height="523.888" viewBox="0 0 562.275 523.888"><defs><style>.a{fill:#f58e17;opacity:0.07;}</style></defs><path class="a" d="M396.911,178.458c19.059,42.184,56.859,69.467,83.385,106.194,24.436,33.756,32.412,80.832,10.947,118.294-24.549,42.738-76.483,37.439-116.633,23.611-20.956-7.219-44.251-21.533-66.936-21.533-31.158,0-69.908,41.269-132.178,39.541-45.449-1.209-99.269-11.648-116.938-59.808-22.12-60.384,36.6-107.053,69.682-149.068,22.346-28.39,36.592-62.045,59.3-90.186C202.5,126.965,222.47,107.669,246.4,103.06c28.153-5.434,56.306-5.3,83.487,4.88C364.511,120.921,382.236,145.967,396.911,178.458Z" transform="translate(175.803 -113.013) rotate(30)"/></svg>