<svg xmlns="http://www.w3.org/2000/svg" width="31" height="25.291" viewBox="0 0 31 25.291"><defs><style>.a{fill:#e22879;}.a,.c{stroke:rgba(0,0,0,0);stroke-miterlimit:10;}.a,.b,.c{fill-rule:evenodd;}.b{fill:#fff;}.c{fill:#ec67a1;}</style></defs><g transform="translate(0.5 0.5)"><path class="a" d="M317.612,382.2H297.038a2.23,2.23,0,0,0-2.223,2.22v12.765a2.228,2.228,0,0,0,2.223,2.219h14.188l3.212,3.232a.681.681,0,0,0,.493.221.706.706,0,0,0,.714-.7v-2.753h1.976a2.229,2.229,0,0,0,2.223-2.219V384.422A2.231,2.231,0,0,0,317.612,382.2Z" transform="translate(-289.842 -382.202)"/><path class="b" d="M300.63,394.105a2.055,2.055,0,1,1,2.058-2.055,2.054,2.054,0,0,1-2.058,2.055Z" transform="translate(-290.285 -383.119)"/><path class="b" d="M308.81,394.105a2.055,2.055,0,1,1,2.059-2.055,2.055,2.055,0,0,1-2.059,2.055Z" transform="translate(-291.247 -383.119)"/><path class="b" d="M316.957,394.1a2.063,2.063,0,1,0-.008,0Z" transform="translate(-292.204 -383.117)"/><path class="c" d="M292.884,398.663v-4.35h-2.25a1.463,1.463,0,0,0-1.453,1.452v8.383a1.441,1.441,0,0,0,1.382,1.5c.024,0,.048,0,.071,0h1.29v1.8a.482.482,0,0,0,.467.467.449.449,0,0,0,.33-.138l2.112-2.109h9.332a1.463,1.463,0,0,0,1.453-1.452v-2.082h-9.244a3.486,3.486,0,0,1-3.492-3.473Z" transform="translate(-289.18 -383.627)"/></g></svg>