<svg xmlns="http://www.w3.org/2000/svg" width="95.025" height="81.316" viewBox="0 0 95.025 81.316"><defs><style>.a{fill:#0096ff;}.b,.c{stroke:none;}.c{fill:#f5fbff;}</style></defs><g transform="translate(6.022 -1.858)"><g transform="translate(0 7.858)"><g class="a" transform="translate(0 -7.858)"><path class="b" d="M 21.35940933227539 80.17302703857422 C 21.30159759521484 80.17302703857422 21.24545478820801 80.17177581787109 21.18777275085449 80.17005920410156 L 21.17418479919434 80.16964721679688 L 21.15712547302246 80.16901397705078 C 17.25026702880859 80.01657867431641 13.71072578430176 79.15592193603516 10.63681983947754 77.61095428466797 C 7.517067432403564 76.04295349121094 4.852467060089111 73.76123809814453 2.717008352279663 70.82918548583984 C 0.9327966570854187 68.3792724609375 -0.4572857022285461 65.48007965087891 -1.414638638496399 62.21209335327148 C -2.257874011993408 59.33366012573242 -2.770544528961182 56.15569305419922 -2.93839168548584 52.76647186279297 C -3.223885774612427 47.00178909301758 -2.501697540283203 40.68378829956055 -0.9048386216163635 34.9763069152832 C 0.2850437164306641 30.72102355957031 1.895043730735779 26.70922470092773 3.880302429199219 23.05277633666992 C 5.836690902709961 19.44950675964355 8.11579704284668 16.26589393615723 10.65432643890381 13.59035301208496 C 13.25052642822266 10.85403537750244 16.05604362487793 8.714553833007813 18.99295043945313 7.231365203857422 C 22.11136054992676 5.65651798248291 25.30338478088379 4.858000755310059 28.48036193847656 4.858000755310059 C 29.29793739318848 4.858000755310059 30.12392616271973 4.914129734039307 30.93538475036621 5.024847507476807 C 32.4181022644043 5.2280592918396 33.73870086669922 6.061435699462891 34.56040954589844 7.311541557312012 C 35.38147735595703 8.560789108276367 35.6219367980957 10.10391807556152 35.22016143798828 11.54531860351563 L 33.2161865234375 18.71295356750488 C 32.66559600830078 20.67730712890625 31.00778579711914 22.13904762268066 28.99218559265137 22.43881225585938 C 25.87709045410156 22.90187072753906 23.03244400024414 25.16845893859863 20.53706741333008 29.1756477355957 C 19.27031707763672 31.20985984802246 18.2445125579834 33.45616912841797 17.43171119689941 35.58943939208984 C 18.43607902526855 35.45291519165039 19.45585441589355 35.38433074951172 20.48790168762207 35.38433074951172 C 22.75644302368164 35.38433074951172 25.08031463623047 35.72222518920898 27.39496040344238 36.38862228393555 C 33.13839721679688 38.04121398925781 37.89497375488281 41.780517578125 40.78803253173828 46.91759872436523 C 43.71081924438477 52.11043548583984 44.43673706054688 58.13019943237305 42.8324089050293 63.86859893798828 C 40.14644241333008 73.46863555908203 31.31649017333984 80.17302703857422 21.35940933227539 80.17302703857422 Z"/><path class="c" d="M 28.48036575317383 7.858009338378906 C 17.47810554504395 7.858009338378906 6.582057952880859 19.34171295166016 1.984214782714844 35.78460693359375 C -0.7147560119628906 45.43128204345703 -1.506172180175781 59.93437576293945 5.14202880859375 69.06301879882813 C 8.862258911132813 74.17105102539063 14.28982925415039 76.89877319335938 21.27408981323242 77.17127990722656 C 21.30282783508301 77.17215728759766 21.33067512512207 77.17301940917969 21.35941314697266 77.17301940917969 C 29.97699737548828 77.17301940917969 37.61858367919922 71.36934661865234 39.94319915771484 63.06085205078125 C 41.33185958862305 58.09383773803711 40.70412063598633 52.88482284545898 38.17404174804688 48.38971328735352 C 35.67096710205078 43.94509887695313 31.54848861694336 40.70545196533203 26.56496810913086 39.27151489257813 C 24.52070617675781 38.68296051025391 22.47644424438477 38.38433074951172 20.48790550231934 38.38433074951172 C 17.41715049743652 38.38433074951172 14.85487365722656 39.08606719970703 12.86807441711426 39.94539260864258 C 14.78347396850586 32.93326950073242 19.38479804992676 20.83399200439453 28.55088996887207 19.471435546875 C 29.39975166320801 19.34519195556641 30.09539794921875 18.73139190673828 30.32698249816895 17.90515899658203 L 32.33033752441406 10.73980712890625 C 32.49922943115234 10.13385009765625 32.39910507202148 9.485221862792969 32.05345916748047 8.959358215332031 C 31.70781326293945 8.433486938476563 31.15235137939453 8.082618713378906 30.52984237670898 7.997299194335938 C 29.85335159301758 7.905006408691406 29.1638126373291 7.858009338378906 28.48036575317383 7.858009338378906 M 28.48036575317383 1.858009338378906 C 29.43427467346191 1.858009338378906 30.39669036865234 1.923561096191406 31.34088897705078 2.052375793457031 C 33.68393707275391 2.373512268066406 35.76981353759766 3.689651489257813 37.0673828125 5.663818359375 C 38.36444473266602 7.63714599609375 38.74449157714844 10.07445526123047 38.11002731323242 12.35073089599609 L 36.10538101196289 19.52074432373047 C 35.23556518554688 22.62399291992188 32.61711883544922 24.93268203735352 29.43352127075195 25.40616226196289 C 26.60984420776367 25.82590484619141 24.1244945526123 28.68708419799805 22.14287948608398 32.43679046630859 C 24.15838241577148 32.56398391723633 26.19744873046875 32.9219856262207 28.22496795654297 33.50571441650391 C 34.72969055175781 35.37736129760742 40.1199836730957 39.61774444580078 43.40199661254883 45.44548416137695 C 46.71812057495117 51.3371467590332 47.54166030883789 58.16635894775391 45.72161102294922 64.67636108398438 C 42.67444229125977 75.56739044189453 32.65647506713867 83.17301940917969 21.35941314697266 83.17301940917969 C 12.25381278991699 82.82389831542969 5.079212188720703 79.16837310791016 0.2920112609863281 72.59534454345703 C -7.611278533935547 61.74334716796875 -7.000648498535156 45.62956237792969 -3.793895721435547 34.16799163818359 C 1.609935760498047 14.84272766113281 14.58005905151367 1.858009338378906 28.48036575317383 1.858009338378906 Z"/></g><g class="a" transform="translate(-6.291 -7.858)"><path class="b" d="M 69.98627471923828 80.17388916015625 C 69.92633819580078 80.17388916015625 69.86973571777344 80.172607421875 69.81158447265625 80.17083740234375 L 69.79872131347656 80.17044830322266 L 69.78348541259766 80.16987609863281 C 65.87709045410156 80.01793670654297 62.33757019042969 79.15742492675781 59.26326370239258 77.61226654052734 C 56.14341735839844 76.04421234130859 53.47893524169922 73.76262664794922 51.34384155273438 70.83087158203125 C 49.55946350097656 68.38059234619141 48.16923141479492 65.48110961914063 47.21173477172852 62.21289825439453 C 46.36837005615234 59.33427429199219 45.85558319091797 56.15615844726563 45.68760681152344 52.76679229736328 C 45.40192413330078 47.00239181518555 46.12379455566406 40.68435668945313 47.72023010253906 34.97653198242188 C 48.91044235229492 30.72088623046875 50.52060699462891 26.70911026000977 52.5059814453125 23.05269813537598 C 54.46249008178711 19.44944000244141 56.7416877746582 16.26583862304688 59.28024291992188 13.59033393859863 C 61.87649917602539 10.85401630401611 64.68204498291016 8.714545249938965 67.61894989013672 7.231369018554688 C 70.73735809326172 5.656521797180176 73.92939758300781 4.858004093170166 77.10636138916016 4.858004093170166 C 77.92493438720703 4.858004093170166 78.75107574462891 4.914157390594482 79.56184387207031 5.024898529052734 C 81.0460205078125 5.22805118560791 82.36751556396484 6.062533855438232 83.18832397460938 7.314475059509277 C 84.00746154785156 8.560722351074219 84.24793243408203 10.10385131835938 83.84618377685547 11.54527473449707 L 81.84219360351563 18.71295738220215 C 81.28913879394531 20.67873382568359 79.63164520263672 22.13936805725098 77.61820983886719 22.43881607055664 C 74.50266265869141 22.90189743041992 71.65776824951172 25.16849899291992 69.16227722167969 29.17569923400879 C 67.89549255371094 31.20987319946289 66.86965179443359 33.45622253417969 66.05683898925781 35.5894889831543 C 67.0615234375 35.45291519165039 68.08144378662109 35.38433456420898 69.1138916015625 35.38433456420898 C 71.38184356689453 35.38433456420898 73.70540618896484 35.72221755981445 76.02006530761719 36.38860321044922 C 81.76381683349609 38.04129791259766 86.52043914794922 41.78099060058594 89.41327667236328 46.91868591308594 C 92.33524322509766 52.11081695556641 93.06184387207031 58.13018035888672 91.45955657958984 63.86852264404297 C 88.77332305908203 73.46949768066406 79.943359375 80.17388916015625 69.98627471923828 80.17388916015625 Z"/><path class="c" d="M 69.98628234863281 77.17388153076172 C 78.60298919677734 77.17388153076172 86.24546813964844 71.37020874023438 88.57008361816406 63.06171417236328 C 89.95699310302734 58.0947151184082 89.32837677001953 52.88482284545898 86.79917907714844 48.39057540893555 C 84.29609680175781 43.94509887695313 80.17360687255859 40.70545196533203 75.19008636474609 39.27151489257813 C 73.14582061767578 38.68296051025391 71.10157775878906 38.38433074951172 69.11389923095703 38.38433074951172 C 66.04315948486328 38.38433074951172 63.4799919128418 39.08606719970703 61.49320602416992 39.94539260864258 C 63.40860748291016 32.93326950073242 68.00992584228516 20.83399200439453 77.1768798828125 19.4714527130127 C 78.0257568359375 19.34520721435547 78.72052764892578 18.73140716552734 78.95298767089844 17.90516090393066 L 80.95634460449219 10.73980712890625 C 81.12522125244141 10.1338529586792 81.02511596679688 9.485222816467285 80.67946624755859 8.95936107635498 C 80.33468627929688 8.433499336242676 79.77922058105469 8.082622528076172 79.15583801269531 7.997299194335938 C 78.48023986816406 7.905006885528564 77.79067993164063 7.858006954193115 77.10636138916016 7.858006954193115 C 66.10411071777344 7.858006954193115 55.20806884765625 19.34171485900879 50.60935974121094 35.78460693359375 C 47.91123580932617 45.43128204345703 47.11982345581055 59.93437576293945 53.76889801025391 69.06477355957031 C 57.4882698059082 74.17192840576172 62.91669845581055 76.9005126953125 69.90010070800781 77.17214202880859 C 69.92882537841797 77.17301940917969 69.95669555664063 77.17388153076172 69.98628234863281 77.17388153076172 M 69.98628234863281 83.17388153076172 L 69.89469909667969 83.17388153076172 L 69.71794128417969 83.16937255859375 C 60.88071441650391 82.82585144042969 53.70613098144531 79.17059326171875 48.91877746582031 72.59696197509766 C 41.01562118530273 61.74448394775391 41.62531280517578 45.63028335571289 44.83111572265625 34.1684684753418 C 50.23612976074219 14.84262275695801 63.20656204223633 1.858006954193115 77.10636138916016 1.858006954193115 C 78.06185150146484 1.858006954193115 79.02463531494141 1.923653125762939 79.96794128417969 2.052514553070068 C 82.31271362304688 2.373437643051147 84.40036010742188 3.691714763641357 85.69711303710938 5.669499397277832 C 86.99040985107422 7.637084007263184 87.37046813964844 10.07434558868408 86.736083984375 12.3505916595459 L 84.73139190673828 19.5207462310791 C 83.85752868652344 22.62674522399902 81.23970031738281 24.9332218170166 78.05950164794922 25.40617561340332 C 75.23544311523438 25.82593154907227 72.74988555908203 28.68706703186035 70.76815032958984 32.436767578125 C 72.783447265625 32.56393432617188 74.82240295410156 32.92193984985352 76.85008239746094 33.50571441650391 C 83.35520935058594 35.37748336791992 88.74559020996094 39.61831283569336 92.02737426757813 45.44677734375 C 95.34237670898438 51.33736038208008 96.16664886474609 58.16577529907227 94.34903717041016 64.67533111572266 C 91.30133056640625 75.56825256347656 81.28334808349609 83.17388153076172 69.98628234863281 83.17388153076172 Z"/></g></g></g></svg>