<svg xmlns="http://www.w3.org/2000/svg" width="60" height="50.108" viewBox="0 0 60 50.108"><defs><style>.a{fill:#ffb300;}</style></defs><g transform="translate(0 -7.858)"><path class="a" d="M19.2,30.567a15.9,15.9,0,0,0-4.393-.641A13.806,13.806,0,0,0,9.3,31.054c1.385-5.069,4.711-13.816,11.337-14.8a1.574,1.574,0,0,0,1.284-1.132l1.448-5.18a1.574,1.574,0,0,0-1.3-1.983,11,11,0,0,0-1.482-.1c-7.954,0-15.83,8.3-19.154,20.188C-.517,35.02-1.089,45.5,3.717,52.1c2.689,3.693,6.613,5.664,11.662,5.861h.062a13.959,13.959,0,0,0,3.763-27.4Z" transform="translate(0 0)"/><path class="a" d="M76.221,37.159a13.992,13.992,0,0,0-8.392-6.592,15.9,15.9,0,0,0-4.392-.641,13.809,13.809,0,0,0-5.509,1.128c1.385-5.069,4.711-13.816,11.338-14.8a1.575,1.575,0,0,0,1.284-1.132L72,9.941a1.574,1.574,0,0,0-1.3-1.983,10.986,10.986,0,0,0-1.482-.1c-7.954,0-15.83,8.3-19.155,20.188C48.109,35.02,47.537,45.5,52.344,52.1c2.689,3.692,6.613,5.664,11.661,5.861h.062A13.959,13.959,0,0,0,76.221,37.159Z" transform="translate(-18.022 0)"/></g></svg>