<svg xmlns="http://www.w3.org/2000/svg" width="163.201" height="35.62" viewBox="0 0 163.201 35.62"><defs><style>.a{fill:#33609f;}.a,.b{fill-rule:evenodd;}.b{fill:#f5a426;}</style></defs><g transform="translate(0)"><path class="a" d="M333.981,69.641a3.268,3.268,0,0,1-.116.916,3.214,3.214,0,0,1-3.093,2.169,2.1,2.1,0,0,1-2.278-2.245c0-2.33,2.566-2.971,5.487-2.957v2.117Zm4.575-4.057c0-3.842-1.641-7.221-7.185-7.221a13.117,13.117,0,0,0-6.338,1.511l.9,3.089a9.261,9.261,0,0,1,4.624-1.3c2.813-.008,3.271,1.59,3.271,2.618v.24c-6.13-.008-10,2.115-10,6.439a5.106,5.106,0,0,0,5.4,5.117,6.145,6.145,0,0,0,4.934-2.189h.105s.7,2.925,4.556,1.81a25.321,25.321,0,0,1-.266-4.088V65.584Z" transform="translate(-243.034 -47.004)"/><path class="a" d="M15.112,38.38s4.007,16.415,4.648,19.077c.744,3.115,2.09,4.257,5.965,3.488l2.5-10.181c.634-2.529,1.059-4.329,1.467-6.9h.071a68.041,68.041,0,0,0,1.217,6.914S32,55.394,32.522,57.82,34.5,61.775,38.3,60.944L44.259,38.38H39.447l-2.036,9.754c-.549,2.838-1.047,5.058-1.425,7.656h-.07c-.348-2.571-.788-4.7-1.346-7.468L32.45,38.38H27.437l-2.266,9.69c-.643,2.944-1.244,5.324-1.626,7.832h-.07c-.392-2.363-.914-5.351-1.476-8.2,0,0-1.347-6.933-1.818-9.321Z" transform="translate(-15.112 -32.25)"/><path class="a" d="M132.6,69.641a3.165,3.165,0,0,1-.114.916,3.212,3.212,0,0,1-3.091,2.169,2.1,2.1,0,0,1-2.275-2.245c0-2.33,2.561-2.971,5.48-2.957v2.117Zm4.577-4.057c0-3.842-1.638-7.221-7.185-7.221a13.129,13.129,0,0,0-6.34,1.511l.906,3.089a9.24,9.24,0,0,1,4.623-1.3c2.811-.008,3.273,1.59,3.273,2.618v.24c-6.133-.008-10,2.115-10,6.439a5.1,5.1,0,0,0,5.4,5.117,6.145,6.145,0,0,0,4.934-2.189h.1s.7,2.925,4.561,1.81a24.618,24.618,0,0,1-.27-4.088V65.584Z" transform="translate(-94.361 -47.004)"/><path class="a" d="M195,56.144V38.372h-4.58V60.938H195V56.144Z" transform="translate(-144.54 -32.244)"/><path class="a" d="M437,38.38V55.027c0,2.29.428,3.9,1.356,4.884a5.067,5.067,0,0,0,3.725,1.412,10.908,10.908,0,0,0,3.318-.489l-.06-3.581a7.036,7.036,0,0,1-1.739.2c-1.561,0-2.084-.995-2.084-3.06V48.034H445.5V43.716h-3.989V38.38Z" transform="translate(-326.589 -32.25)"/><path class="a" d="M391.789,58.747V75.7h4.725V67.014a6.641,6.641,0,0,1,.1-1.25,3.569,3.569,0,0,1,3.739-2.977,8.737,8.737,0,0,1,1.36.118V58.469a4.4,4.4,0,0,0-1.039-.106,4.987,4.987,0,0,0-4.611,3.58h-.131v-3.2Z" transform="translate(-293.213 -47.004)"/><path class="a" d="M220.188,58.747V75.7h4.6V65.756a3.923,3.923,0,0,1,.218-1.387,3.119,3.119,0,0,1,2.8-2.175c1.859,0,2.726,1.573,2.726,3.842V75.7h4.6V65.636a4.757,4.757,0,0,1,.191-1.375,2.911,2.911,0,0,1,2.766-2.067c1.883,0,2.786,1.546,2.786,4.215V75.7h4.608V65.712c0-5.266-2.676-7.349-5.693-7.349a6.14,6.14,0,0,0-3.344.92,7.118,7.118,0,0,0-2.146,2.111h-.068a4.835,4.835,0,0,0-4.673-3.031,5.333,5.333,0,0,0-4.936,2.687h-.068v-2.3Z" transform="translate(-166.52 -47.004)"/><path class="b" d="M560.8,26.948a1.528,1.528,0,0,0,1.613-1l.825-9.319c0-.919-1.082-1.675-2.436-1.675s-2.434.756-2.434,1.675l.824,9.319a1.525,1.525,0,0,0,1.613,1Z" transform="translate(-416.198 -14.957)"/><path class="b" d="M517.87,50.941a1.519,1.519,0,0,0-.056-1.892l-7.66-5.374c-.8-.46-1.993.093-2.668,1.269s-.56,2.486.234,2.947l8.481,3.949a1.539,1.539,0,0,0,1.671-.9l0,0Z" transform="translate(-378.305 -36.04)"/><path class="b" d="M586.1,50.937a1.538,1.538,0,0,0,1.67.9l8.482-3.949c.8-.462.912-1.774.232-2.947s-1.87-1.73-2.67-1.269l-7.658,5.374a1.525,1.525,0,0,0-.054,1.892l0,0Z" transform="translate(-436.457 -36.041)"/><path class="b" d="M560.8,105.239a1.529,1.529,0,0,1,1.613.995l.825,9.321c0,.919-1.082,1.677-2.436,1.677s-2.434-.758-2.434-1.677l.824-9.321a1.526,1.526,0,0,1,1.613-.995Z" transform="translate(-416.198 -81.612)"/><path class="b" d="M586.1,91.449a1.532,1.532,0,0,1,1.67-.9l8.482,3.947c.8.462.912,1.772.232,2.948s-1.87,1.73-2.67,1.273l-7.658-5.374a1.531,1.531,0,0,1-.054-1.895l0,0Z" transform="translate(-436.457 -70.726)"/><path class="b" d="M517.87,91.443a1.525,1.525,0,0,1-.056,1.895l-7.66,5.368c-.8.46-1.993-.094-2.668-1.267s-.56-2.487.234-2.95l8.481-3.945a1.529,1.529,0,0,1,1.671.9l0,0Z" transform="translate(-378.305 -70.724)"/><path class="b" d="M628.513,124.388a.715.715,0,0,0,.348.1c.171,0,.264-.077.264-.2s-.074-.175-.258-.239c-.236-.089-.388-.213-.388-.421,0-.238.2-.42.511-.42a.751.751,0,0,1,.348.075l-.067.215a.589.589,0,0,0-.286-.072c-.17,0-.239.091-.239.174,0,.114.082.164.275.238.25.092.371.222.371.428,0,.234-.174.435-.546.435a.868.868,0,0,1-.392-.089l.06-.222Z" transform="translate(-467.942 -94.877)"/><path class="b" d="M634.09,124.162c-.012-.186-.021-.41-.021-.607h-.006a5.79,5.79,0,0,1-.171.554l-.209.628h-.2l-.193-.619c-.054-.187-.106-.382-.143-.563h-.008c-.006.187-.018.418-.026.618l-.033.58h-.247l.1-1.447h.346l.19.581c.052.168.095.34.134.5h.006c.037-.155.088-.336.143-.5l.2-.58h.344l.087,1.447h-.259l-.027-.592Z" transform="translate(-471.174 -94.953)"/></g></svg>