<svg xmlns="http://www.w3.org/2000/svg" width="134.827" height="32.665" viewBox="0 0 134.827 32.665"><defs><style>.a{fill:#0094cb;}.a,.b,.c{fill-rule:evenodd;}.b{fill:#003082;}.c{fill:#00236d;}</style></defs><g transform="translate(0)"><path class="a" d="M176.352,386.87h9.214c4.946,0,6.809,2.5,6.521,6.189-.474,6.075-4.147,9.434-9.019,9.434h-2.46c-.668,0-1.117.441-1.3,1.641l-1.055,6.964c-.068.452-.307.718-.664.75h-5.778c-.544,0-.737-.416-.595-1.317l3.528-22.34A1.409,1.409,0,0,1,176.352,386.87Z" transform="translate(-164.588 -379.182)"/><path class="b" d="M322.118,385.134c3.109,0,5.977,1.686,5.584,5.889-.465,4.983-3.151,7.758-7.375,7.77h-3.685c-.531,0-.787.432-.926,1.321l-.711,4.535c-.107.685-.458,1.023-.978,1.023H310.6c-.547,0-.738-.35-.616-1.132l2.837-18.18c.14-.894.482-1.226,1.088-1.226Zm-5.59,9.732h2.8c1.747-.066,2.909-1.276,3.026-3.46a2.11,2.11,0,0,0-2.288-2.307l-2.631.012-.9,5.754Zm20.5,9.413c.313-.284.633-.433.587-.082l-.111.843c-.058.439.117.674.527.674h3.049c.513,0,.763-.208.89-1l1.879-11.792c.094-.592-.049-.883-.5-.883H340c-.3,0-.449.17-.528.631l-.124.726c-.065.379-.238.444-.4.063-.569-1.347-2.02-1.951-4.054-1.909-4.7.1-7.873,3.666-8.212,8.242a5.667,5.667,0,0,0,5.617,6.319,6.06,6.06,0,0,0,4.732-1.831Zm-2.551-1.811a3.062,3.062,0,0,1-3.141-3.594,4.378,4.378,0,0,1,4.21-3.594,3.062,3.062,0,0,1,3.14,3.594,4.378,4.378,0,0,1-4.21,3.594ZM349.821,392h-3.08c-.638,0-.9.467-.695,1.061l3.838,11.24-3.782,5.346c-.316.446-.072.854.373.854h3.475a1.064,1.064,0,0,0,1.033-.507l11.8-16.934c.364-.522.192-1.068-.4-1.068l-3.285,0c-.564,0-.79.223-1.114.692l-4.924,7.144-2.19-7.156A.947.947,0,0,0,349.821,392Z" transform="translate(-270.355 -377.859)"/><path class="a" d="M544.786,385.134c3.109,0,5.977,1.686,5.585,5.889-.465,4.983-3.151,7.758-7.375,7.77H539.31c-.531,0-.786.432-.926,1.321l-.711,4.535c-.107.685-.458,1.023-.978,1.023h-3.431c-.547,0-.738-.35-.616-1.132l2.837-18.18c.14-.894.482-1.226,1.088-1.226Zm-5.59,9.732h2.8c1.747-.066,2.909-1.276,3.026-3.46a2.11,2.11,0,0,0-2.289-2.307l-2.631.012-.9,5.754Zm20.5,9.413c.313-.284.633-.433.587-.082l-.112.843c-.058.439.117.674.527.674h3.048c.513,0,.763-.208.89-1l1.879-11.792c.094-.592-.049-.883-.5-.883h-3.352c-.3,0-.449.17-.528.631l-.124.726c-.065.379-.238.444-.4.063-.569-1.347-2.02-1.951-4.054-1.909-4.7.1-7.873,3.666-8.212,8.242a5.667,5.667,0,0,0,5.617,6.319,6.059,6.059,0,0,0,4.732-1.831Zm-2.551-1.811a3.062,3.062,0,0,1-3.14-3.594,4.378,4.378,0,0,1,4.21-3.594,3.062,3.062,0,0,1,3.14,3.594,4.378,4.378,0,0,1-4.21,3.594Zm14.062,3.267h-3.519a.415.415,0,0,1-.431-.487l3.094-19.586a.607.607,0,0,1,.585-.487h3.519a.415.415,0,0,1,.431.487L571.8,405.248A.607.607,0,0,1,571.21,405.735Z" transform="translate(-440.068 -377.859)"/><path class="b" d="M149.483,354.543h9.223c2.6,0,5.679.084,7.74,1.9a6.244,6.244,0,0,1,1.933,5.226c-.566,7.043-4.778,10.987-10.427,10.987H153.4c-.774,0-1.288.513-1.506,1.9l-1.269,8.075c-.083.524-.31.833-.724.87h-5.682c-.63,0-.855-.482-.69-1.527l4.091-25.9A1.633,1.633,0,0,1,149.483,354.543Z" transform="translate(-143.479 -354.543)"/><path class="c" d="M179.427,398.386l1.611-10.195a1.409,1.409,0,0,1,1.6-1.321h9.214a9,9,0,0,1,3.724.677c-.926,6.268-4.98,9.751-10.289,9.751h-4.549C180.143,397.3,179.7,397.6,179.427,398.386Z" transform="translate(-170.877 -379.182)"/></g></svg>