<svg xmlns="http://www.w3.org/2000/svg" width="136.559" height="23.815" viewBox="0 0 136.559 23.815"><defs><style>.a{fill:#1a1818;fill-rule:evenodd;}</style></defs><g transform="translate(-0.001)"><path class="a" d="M937.159,393.086a2.081,2.081,0,1,0,2.076,2.076,2.081,2.081,0,0,0-2.076-2.076Zm0,3.912a1.831,1.831,0,1,1,1.825-1.836A1.828,1.828,0,0,1,937.159,397Z" transform="translate(-802.675 -373.854)"/><path class="a" d="M938.713,394.955a.571.571,0,0,0-.261-.5,1.073,1.073,0,0,0-.567-.115h-1.013v2.326h.283v-1.073h.523l.665,1.073h.338l-.7-1.073h0c.414-.011.736-.18.736-.638Zm-1.123.415h-.436v-.823h.665c.288,0,.6.043.6.4,0,.474-.507.42-.834.42Z" transform="translate(-803.161 -374.193)"/><path class="a" d="M914.445,376.576l4.256-4.544h0a1.445,1.445,0,0,0,.369-.767c0-.334-.287-.467-1.189-.467h-1.074V367.93h11.622V370.8H926.9c-1.763,0-2.092.266-4.552,3.369h0l-6.733,7.271v4.436h0c0,1.134.574,1.534,2.215,1.534h2.542v2.768H904.1v-2.768h2.542c1.639,0,2.214-.4,2.214-1.534h0v-4.436l-7.929-8.771h0c-1.311-1.534-1.13-1.868-4.778-1.868h0V367.93h14.722V370.8h-1.049c-1.066,0-1.518.2-1.518.6,0,.334.328.6.534.866h0l4.012,4.372h0a.974.974,0,0,0,1.6-.061Z" transform="translate(-792.162 -367.06)"/><path class="a" d="M777.2,367.669h3.551v8h-3.279c-.291-1.6-1.291-2.223-2.206-3.062-1.647-1.514-5.215-2.774-8.216-2.774-3.872,0-7.141,1.2-7.141,2.969,0,4.9,22.149,1,22.149,10.273,0,4.836-4.745,7.537-13.265,7.537a24.977,24.977,0,0,1-10.047-2.314c-.826-.477-1.177.45-1.331,1.614h-3.642v-8.271h3.293c.726,2.1,1.727,2.534,2.647,3.369,1.6,1.467,5.4,2.535,8.885,2.5,5.255-.051,7.063-1.2,7.063-2.868s-1.788-2.068-7.548-2.969h0l-4.89-.8h0c-5.519-.834-9.537-2.068-9.537-6.471,0-4.569,5.083-7.437,13.12-7.437a17.282,17.282,0,0,1,8.94,1.99c.755.489,1.461.547,1.452-1.29Z" transform="translate(-753.687 -366.8)"/><path class="a" d="M871.31,381.391l.07-8.9h0c0-1.167-.607-1.567-2.342-1.567H867V368.16H879.97v2.769h-1.691c-1.737,0-2.344.4-2.344,1.567h0v17.91l-5.077-.039L854.418,374.8V386.1h0c0,1.135.608,1.568,2.342,1.568h2.256v2.735H845.547v-2.735h2.231c1.735,0,2.342-.433,2.342-1.568h0V372.5h0c0-1.167-.607-1.567-2.342-1.567h-2.231V368.16h11.647l14.115,13.231Z" transform="translate(-778.497 -367.122)"/><path class="a" d="M815.1,366.738c-10.338,0-16.808,4.57-16.808,11.907,0,7.2,6.38,11.739,16.492,11.739,10.741,0,16.987-4.469,16.987-12.106,0-6.87-6.742-11.54-16.672-11.54Zm-.235,20.745c-5.722,0-9.012-3.3-9.012-9.005,0-5.569,3.432-8.871,9.3-8.871,5.626,0,8.915,3.369,8.915,9.105,0,5.6-3.336,8.771-9.2,8.771Z" transform="translate(-765.734 -366.738)"/></g></svg>