<svg xmlns="http://www.w3.org/2000/svg" width="57.773" height="57.775" viewBox="0 0 57.773 57.775"><defs><style>.a{fill:#0092d6;fill-rule:evenodd;}</style></defs><path class="a" d="M652.023,216.69h-4.6l-6.441,17.676h4.6l6.441-17.676Zm-17.48,37.723c-.284,0-.57-.005-.855-.014l5.9-16.225h8.122a3.98,3.98,0,0,0,3.481-2.435l6.4-17.592c1.05-2.882-.6-5.236-3.667-5.236H642.661L633.2,238.9h0l-5.363,14.729a28.894,28.894,0,0,1-1.089-55.922l-5.533,15.206h0l-9.2,25.264h6.123l7.822-21.467h4.6l-7.822,21.467,6.119,0,7.289-20.03c1.048-2.882-.6-5.236-3.663-5.236h-5.146l5.908-16.239q.647-.033,1.3-.033a28.888,28.888,0,1,1,0,57.775Z" transform="translate(-605.66 -196.638)"/></svg>