<svg xmlns="http://www.w3.org/2000/svg" width="126.054" height="41.331" viewBox="0 0 126.054 41.331"><defs><style>.a{fill:#386db4;}.b{fill:#d01b28;}.c{fill:#f7b300;}.d{fill:#4baa3f;}</style></defs><g transform="translate(0)"><path class="a" d="M200.286,393.459H185.577v4.365h10.432c-.515,6.121-5.608,8.731-10.414,8.731a11.658,11.658,0,0,1,.014-23.315,11.32,11.32,0,0,1,7.864,3.155l3.056-3.164a15.538,15.538,0,0,0-11.077-4.367,16.035,16.035,0,1,0,.232,32.066c8.584,0,14.868-5.881,14.868-14.576a13.072,13.072,0,0,0-.267-2.895Z" transform="translate(-169.295 -378.863)"/><path class="b" d="M246.2,402.149a10.306,10.306,0,1,0,10.342,10.342A10.184,10.184,0,0,0,246.2,402.149Zm.06,4.048a6.271,6.271,0,1,1-5.9,6.236,5.925,5.925,0,0,1,5.9-6.236Z" transform="translate(-203.162 -390.714)"/><path class="c" d="M292.088,402.149a10.306,10.306,0,1,0,10.342,10.342,10.184,10.184,0,0,0-10.342-10.342Zm.06,4.048a6.271,6.271,0,1,1-5.9,6.236,5.926,5.926,0,0,1,5.9-6.236Z" transform="translate(-226.515 -390.714)"/><path class="a" d="M337.578,402.171c-5.54,0-9.894,4.852-9.894,10.3a10.166,10.166,0,0,0,9.8,10.317,6.808,6.808,0,0,0,5.652-2.5v2.033c0,3.555-2.159,5.685-5.418,5.685a5.715,5.715,0,0,1-5.276-3.669l-3.961,1.656a9.916,9.916,0,0,0,9.27,6.07c5.508,0,9.706-3.469,9.706-10.746V402.791h-4.321v1.746a7.291,7.291,0,0,0-5.557-2.365Zm.4,4.04c2.716,0,5.5,2.319,5.5,6.28,0,4.026-2.783,6.245-5.565,6.245a5.856,5.856,0,0,1-5.7-6.206c0-3.957,2.854-6.318,5.762-6.318Z" transform="translate(-249.903 -390.725)"/><path class="b" d="M397.108,402.121c-5.226,0-9.613,4.158-9.613,10.292a9.967,9.967,0,0,0,10.116,10.342,10.456,10.456,0,0,0,8.634-4.523l-3.563-2.37a5.767,5.767,0,0,1-5.049,2.837,5.3,5.3,0,0,1-5.055-3.123l13.819-5.734-.717-1.68a9.331,9.331,0,0,0-8.57-6.039Zm.18,3.964a4.108,4.108,0,0,1,3.814,2.2l-9.229,3.857a5.725,5.725,0,0,1,5.415-6.059Z" transform="translate(-280.343 -390.7)"/><path class="d" d="M374.079,411.412h4.54V381.034h-4.54Z" transform="translate(-273.515 -379.968)"/></g></svg>