<svg xmlns="http://www.w3.org/2000/svg" width="34" height="26.721" viewBox="0 0 34 26.721"><defs><style>.a{fill:#84d0ff;}.a,.b{fill-rule:evenodd;}.b{fill:#0096ff;}</style></defs><g transform="translate(-282.831 -387.045)"><path class="a" d="M315.618,399.527H284.044a1.238,1.238,0,0,0-1.213,1.216V405.6a1.232,1.232,0,0,0,1.213,1.213h31.574a1.23,1.23,0,0,0,1.213-1.213v-4.856A1.236,1.236,0,0,0,315.618,399.527Zm-1.213,4.858H302.262v-2.429h12.144Z" transform="translate(0 6.953)"/><path class="a" d="M316.47,387.411l0-.006a1.172,1.172,0,0,0-.853-.36H284.044a1.234,1.234,0,0,0-1.213,1.213v4.866a1.232,1.232,0,0,0,1.213,1.213h31.574a1.23,1.23,0,0,0,1.213-1.213v-4.861A1.167,1.167,0,0,0,316.47,387.411ZM314.4,391.9h-7.284v-2.42H314.4Z"/><path class="b" d="M315.618,393.291H284.044a1.234,1.234,0,0,0-1.213,1.213v4.857a1.231,1.231,0,0,0,1.213,1.216H315.62a1.229,1.229,0,0,0,1.211-1.216V394.5a1.232,1.232,0,0,0-1.211-1.213Zm-1.216,4.857H294.978V395.72H314.4v2.427Z" transform="translate(0 3.477)"/></g></svg>