<svg xmlns="http://www.w3.org/2000/svg" width="29.093" height="31.714" viewBox="0 0 29.093 31.714"><defs><style>.a{fill:#84d0ff;}.a,.b,.c{fill-rule:evenodd;}.b{fill:#1793e7;}.c{fill:#0096ff;}</style></defs><g transform="translate(-365.913 -283.54)"><path class="a" d="M394.443,283.776l-1.276,1.276a.814.814,0,0,1-1.145,0l-1.28-1.276a.815.815,0,0,0-1.147,0l-1.276,1.276a.814.814,0,0,1-1.145,0l-1.276-1.276a.815.815,0,0,0-1.147,0l-1.292,1.276a.815.815,0,0,1-1.146,0l-1.276-1.276a.812.812,0,0,0-1.145,0l-1.276,1.276a.814.814,0,0,1-1.147,0l-1.276-1.276a.812.812,0,0,0-1.145,0l-1.28,1.276a.816.816,0,0,1-1.148,0l-1.287-1.276a.816.816,0,0,0-1.148,0l-1.276,1.276a.814.814,0,0,1-1.147,0l-1.276-1.276c-.315-.315-.573-.209-.573.241V314.78c0,.445.258.547.573.238l1.276-1.276a.812.812,0,0,1,1.147,0l1.276,1.276a.815.815,0,0,0,1.146,0l1.287-1.276a.813.813,0,0,1,1.146,0l1.276,1.276a.814.814,0,0,0,1.145,0l1.276-1.276a.812.812,0,0,1,1.147,0l1.276,1.276a.812.812,0,0,0,1.145,0l1.276-1.276a.813.813,0,0,1,1.146,0l1.293,1.276a.816.816,0,0,0,1.146,0l1.276-1.276a.811.811,0,0,1,1.145,0l1.276,1.276a.815.815,0,0,0,1.147,0l1.276-1.276a.811.811,0,0,1,1.145,0l1.276,1.276c.315.315.574.207.574-.238V284.013C395.012,283.571,394.756,283.46,394.443,283.776Z" transform="translate(0 0)"/><path class="b" d="M389.681,312.52H373.467a1.623,1.623,0,0,1-.125-3.244h16.336a1.623,1.623,0,0,1,.134,3.243h-.129Z" transform="translate(-1.147 -5.031)"/><path class="b" d="M389.7,304.471H373.482a1.622,1.622,0,0,1,0-3.244h16.21a1.624,1.624,0,0,1,0,3.247h0Z" transform="translate(-1.163 -3.458)"/><path class="c" d="M389.706,296.424H373.491a1.621,1.621,0,0,1,0-3.241H389.7a1.621,1.621,0,1,1,.083,3.241h-.078Z" transform="translate(-1.172 -1.885)"/></g></svg>