<svg xmlns="http://www.w3.org/2000/svg" width="32.574" height="32.584" viewBox="0 0 32.574 32.584"><defs><style>.a,.c,.d{fill:#84d0ff;}.a{fill-rule:evenodd;}.b{fill:#0096ff;}.c{stroke:#0096ff;stroke-miterlimit:10;stroke-width:2px;}</style></defs><g transform="translate(-287.25 -376.68)"><path class="a" d="M294.606,385.363h2.06a1.121,1.121,0,0,0,1.127-1.107v-6.471a1.12,1.12,0,0,0-1.131-1.106H294.6a1.119,1.119,0,0,0-1.131,1.106v6.461a1.12,1.12,0,0,0,1.121,1.106Z" transform="translate(-1.155 0)"/><g transform="translate(287.25 380.293)"><path class="b" d="M308.1,405.764h-2.64a.747.747,0,0,0-.755.739v2.58a.748.748,0,0,0,.755.739h2.64a.75.75,0,0,0,.757-.739l0-2.58A.747.747,0,0,0,308.1,405.764Z" transform="translate(-290.491 -385.693)"/><path class="b" d="M299.994,405.763h-2.646a.747.747,0,0,0-.765.73v2.588a.75.75,0,0,0,.758.739h2.646a.748.748,0,0,0,.765-.731V406.5A.75.75,0,0,0,299.994,405.763Z" transform="translate(-288.983 -385.693)"/><path class="b" d="M305.461,401.9h2.64a.749.749,0,0,0,.756-.741h0v-2.58a.747.747,0,0,0-.755-.739h-2.64a.746.746,0,0,0-.756.737v2.582A.749.749,0,0,0,305.461,401.9Z" transform="translate(-290.491 -384.222)"/><path class="c" d="M323.692,381.136h0Z" transform="translate(-294.015 -381.12)"/><path class="b" d="M299.994,397.843h-2.645a.746.746,0,0,0-.765.727v2.591a.748.748,0,0,0,.755.741h2.648a.748.748,0,0,0,.765-.731v-2.59A.75.75,0,0,0,299.994,397.843Z" transform="translate(-288.983 -384.222)"/><path class="b" d="M316.2,405.764h-2.639a.749.749,0,0,0-.756.739v2.58a.749.749,0,0,0,.756.739H316.2a.748.748,0,0,0,.756-.739V406.5h0A.747.747,0,0,0,316.2,405.764Z" transform="translate(-291.994 -385.693)"/><path class="d" d="M316.929,381.132v3.941a3.257,3.257,0,0,1-3.3,3.217h-2.083a3.273,3.273,0,0,1-3.318-3.217v-3.956h-9.38v3.956a3.275,3.275,0,0,1-3.319,3.217H293.45a3.258,3.258,0,0,1-3.3-3.215v-3.943a2.964,2.964,0,0,0-2.9,2.919v23.1a2.97,2.97,0,0,0,2.986,2.938h26.6a2.971,2.971,0,0,0,2.986-2.938v-23.1A2.965,2.965,0,0,0,316.929,381.132Zm-2.246,25.839H292.35a1.274,1.274,0,0,1-1.29-1.259V393.779a1.276,1.276,0,0,1,1.29-1.263h22.321a1.277,1.277,0,0,1,1.29,1.263v11.929h.011A1.278,1.278,0,0,1,314.683,406.972Z" transform="translate(-287.25 -381.117)"/><path class="b" d="M316.2,397.844h-2.64a.745.745,0,0,0-.756.735v2.583a.748.748,0,0,0,.755.741h2.64a.749.749,0,0,0,.756-.741h0v-2.58A.747.747,0,0,0,316.2,397.844Z" transform="translate(-291.995 -384.222)"/></g><path class="a" d="M316.807,385.363h2.059A1.12,1.12,0,0,0,320,384.257v-6.472a1.119,1.119,0,0,0-1.131-1.106h-2.059a1.12,1.12,0,0,0-1.131,1.106v6.461a1.121,1.121,0,0,0,1.122,1.106Z" transform="translate(-5.277 0)"/></g></svg>