<svg xmlns="http://www.w3.org/2000/svg" width="21.836" height="17.161" viewBox="0 0 21.836 17.161"><defs><style>.a,.b{fill:#00e30f;fill-rule:evenodd;}.b{opacity:0.66;}</style></defs><g transform="translate(-282.831 -387.045)"><path class="a" d="M303.888,399.527H283.61a.8.8,0,0,0-.779.781v3.119a.791.791,0,0,0,.779.779h20.278a.79.79,0,0,0,.779-.779v-3.119A.794.794,0,0,0,303.888,399.527Zm-.779,3.12h-7.8v-1.56h7.8Z"/><path class="a" d="M304.435,387.28v0a.753.753,0,0,0-.548-.231H283.61a.792.792,0,0,0-.779.779v3.125a.791.791,0,0,0,.779.779h20.278a.79.79,0,0,0,.779-.779v-3.122A.75.75,0,0,0,304.435,387.28Zm-1.332,2.88h-4.678v-1.554H303.1Z"/><path class="b" d="M303.888,393.289H283.61a.792.792,0,0,0-.779.779v3.119a.791.791,0,0,0,.779.781h20.279a.789.789,0,0,0,.778-.781v-3.122a.791.791,0,0,0-.778-.779Zm-.781,3.119H290.632v-1.559H303.1v1.559Z"/></g></svg>